<svg width="24" height="25" viewBox="0 0 24 25" fill="none" xmlns="http://www.w3.org/2000/svg">
<path d="M15.5117 0.5H7.07634C3.20052 0.5 0 3.70131 0 7.57808C0 11.1232 2.68292 14.0634 6.09676 14.5413C6.31144 14.6422 6.81662 14.6093 7.07634 14.6093V16.7186C7.07634 16.9782 7.21913 17.2164 7.44773 17.3387C7.67342 17.4598 7.95151 17.4488 8.16924 17.3037L12.2098 14.6093H15.5117C19.3875 14.6093 22.5881 11.4548 22.5881 7.57808C22.5881 3.70131 19.3875 0.5 15.5117 0.5ZM7.07634 8.98432C6.30132 8.98432 5.67044 8.35329 5.67044 7.57808C5.67044 6.80286 6.30132 6.17184 7.07634 6.17184C7.85136 6.17184 8.48224 6.80286 8.48224 7.57808C8.48224 8.35329 7.85136 8.98432 7.07634 8.98432ZM11.294 8.98432C10.519 8.98432 9.88813 8.35329 9.88813 7.57808C9.88813 6.80286 10.519 6.17184 11.294 6.17184C12.069 6.17184 12.6999 6.80286 12.6999 7.57808C12.6999 8.35329 12.069 8.98432 11.294 8.98432ZM15.5117 8.98432C14.7367 8.98432 14.1058 8.35329 14.1058 7.57808C14.1058 6.80286 14.7367 6.17184 15.5117 6.17184C16.2867 6.17184 16.9176 6.80286 16.9176 7.57808C16.9176 8.35329 16.2867 8.98432 15.5117 8.98432Z" fill="#F4A72C"/>
<path d="M23.1303 11.2861C21.755 14.0822 18.8382 16.0157 15.5178 16.0157H12.6415L8.9551 18.4739C8.29499 18.915 7.4597 18.9377 6.78927 18.5783C6.10348 18.2116 5.67651 17.4989 5.67651 16.7188V15.8983C4.09272 15.6313 2.63068 14.9101 1.48352 13.897C1.45948 14.1346 1.41196 14.3677 1.41196 14.6095C1.41196 18.4862 4.61248 21.6407 8.4883 21.6407H11.7902L15.8308 24.3819C16.0485 24.527 16.3266 24.538 16.5523 24.4169C16.7809 24.2947 16.9237 24.0565 16.9237 23.7969V21.6407C17.1834 21.6407 17.6886 21.6736 17.9033 21.5727C21.3171 21.0948 24 18.1539 24 14.6095C24 13.4227 23.6782 12.2989 23.1303 11.2861Z" fill="#10CCC3"/>
</svg>
