<svg width="20" height="20" viewBox="0 0 20 20" fill="none" xmlns="http://www.w3.org/2000/svg">
<path d="M18.9988 10.6393C19.4185 10.6393 19.7588 10.2991 19.7588 9.87939C19.7588 9.45968 19.4185 9.11944 18.9988 9.11944H17.4402C17.357 8.30464 17.1414 7.50889 16.8018 6.76359L18.1576 5.98083C18.5179 5.76956 18.6402 5.30702 18.4314 4.94525C18.2225 4.58347 17.7608 4.45812 17.3976 4.66459L16.0388 5.44886C15.5595 4.78522 14.9768 4.20279 14.313 3.72377L15.0972 2.36497C15.3037 2.00182 15.1783 1.5401 14.8166 1.33123C14.4548 1.12235 13.9923 1.24464 13.781 1.60502L12.9952 2.95698C12.2499 2.61738 11.4541 2.40175 10.6393 2.31862V0.759953C10.6393 0.340243 10.2991 0 9.87939 0C9.45968 0 9.11944 0.340243 9.11944 0.759953V2.31862C8.30464 2.40175 7.50889 2.61738 6.76359 2.95698L5.98083 1.60122C5.84605 1.36415 5.59457 1.21748 5.32186 1.21688C5.04916 1.21628 4.79704 1.36185 4.66121 1.59832C4.52538 1.83479 4.52667 2.12591 4.66459 2.36117L5.44583 3.72377C4.78357 4.20219 4.20219 4.78357 3.72377 5.44583L2.36497 4.66155C2.00182 4.45508 1.5401 4.58044 1.33123 4.94221C1.12235 5.30398 1.24464 5.76652 1.60502 5.97779L2.96078 6.76054C2.62118 7.50585 2.40555 8.3016 2.32242 9.1164H0.759953C0.340243 9.1164 0 9.45664 0 9.87635C0 10.2961 0.340243 10.6363 0.759953 10.6363H2.31862C2.40175 11.4511 2.61738 12.2469 2.95698 12.9922L1.60122 13.7749C1.36415 13.9097 1.21748 14.1612 1.21688 14.4339C1.21628 14.7066 1.36185 14.9587 1.59832 15.0945C1.83479 15.2304 2.12591 15.2291 2.36117 15.0912L3.72377 14.313C4.20302 14.9769 4.78572 15.5596 5.44963 16.0388L4.66535 17.3976C4.52743 17.6329 4.52614 17.924 4.66197 18.1605C4.7978 18.3969 5.04992 18.5425 5.32262 18.5419C5.59533 18.5413 5.8468 18.3946 5.98159 18.1576L6.76434 16.8018C7.50965 17.1414 8.3054 17.357 9.1202 17.4402V18.9988C9.1202 19.4185 9.46044 19.7588 9.88015 19.7588C10.2999 19.7588 10.6401 19.4185 10.6401 18.9988V17.4402C11.4549 17.357 12.2507 17.1414 12.996 16.8018L13.7787 18.1576C13.99 18.5179 14.4525 18.6402 14.8143 18.4314C15.1761 18.2225 15.3014 17.7608 15.095 17.3976L14.3107 16.0388C14.9746 15.5596 15.5573 14.9769 16.0365 14.313L17.3953 15.0972C17.5107 15.1642 17.6419 15.1993 17.7753 15.1991C18.1193 15.199 18.4203 14.968 18.5093 14.6358C18.5984 14.3036 18.4531 13.953 18.1553 13.781L16.8018 12.9952C17.1414 12.2499 17.357 11.4541 17.4402 10.6393H18.9988ZM9.87939 15.959C6.52171 15.959 3.79977 13.2371 3.79977 9.87939C3.79977 6.52171 6.52171 3.79977 9.87939 3.79977C13.2371 3.79977 15.959 6.52171 15.959 9.87939C15.9552 13.2355 13.2355 15.9552 9.87939 15.959Z" fill="#414141"/>
<path d="M10.6393 7.60081C11.0591 7.60081 11.3993 7.26057 11.3993 6.84086C11.3993 6.42115 11.0591 6.08091 10.6393 6.08091C10.2196 6.08091 9.87939 6.42115 9.87939 6.84086C9.87939 7.26057 10.2196 7.60081 10.6393 7.60081Z" fill="#414141"/>
<path d="M6.84082 8.35886C7.26054 8.35886 7.60078 8.01862 7.60078 7.5989C7.60078 7.17919 7.26054 6.83895 6.84082 6.83895C6.42111 6.83895 6.08087 7.17919 6.08087 7.5989C6.08087 8.01862 6.42111 8.35886 6.84082 8.35886Z" fill="#414141"/>
<path d="M12.9218 12.1601C13.3415 12.1601 13.6817 11.8199 13.6817 11.4002C13.6817 10.9804 13.3415 10.6402 12.9218 10.6402C12.502 10.6402 12.1618 10.9804 12.1618 11.4002C12.1618 11.8199 12.502 12.1601 12.9218 12.1601Z" fill="#414141"/>
<path d="M7.60169 12.9182C8.0214 12.9182 8.36164 12.5779 8.36164 12.1582C8.36164 11.7385 8.0214 11.3982 7.60169 11.3982C7.18198 11.3982 6.84174 11.7385 6.84174 12.1582C6.84174 12.5779 7.18198 12.9182 7.60169 12.9182Z" fill="#414141"/>
</svg>
