<svg width="33" height="31" viewBox="0 0 33 31" fill="none" xmlns="http://www.w3.org/2000/svg">
<path d="M1.72732 5.14354C1.67219 5.21661 1.60485 5.28424 1.52716 5.34489C1.81743 5.27028 1.83748 5.17333 1.90755 4.96451H1.85742C1.81744 5.01671 1.76742 5.07639 1.72732 5.14354Z" fill="#414141"/>
<path d="M2.8061 16.1743H5.54764C5.6576 17.6111 6.03487 19.0147 6.66007 20.3131L4.28335 21.6861C4.00304 21.8455 3.82962 22.1428 3.82891 22.4653C3.8282 22.7877 4.00032 23.0858 4.27992 23.2464C4.55953 23.407 4.90375 23.4055 5.18192 23.2424L7.55235 21.873C8.36917 23.0609 9.3971 24.0889 10.585 24.9057L9.2165 27.277C9.05343 27.5552 9.0519 27.8994 9.2125 28.179C9.37311 28.4586 9.67121 28.6307 9.99366 28.63C10.3161 28.6293 10.6135 28.4559 10.7728 28.1756L12.1458 25.7989C13.444 26.4245 14.8478 26.8018 16.2847 26.9113V29.6528C16.2847 30.1491 16.687 30.5514 17.1832 30.5514C17.6795 30.5514 18.0818 30.1491 18.0818 29.6528V26.9113C19.5187 26.8018 20.9224 26.4245 22.2206 25.7989L23.5936 28.1756C23.753 28.4559 24.0504 28.6293 24.3728 28.63C24.6952 28.6307 24.9934 28.4586 25.154 28.179C25.3146 27.8994 25.313 27.5552 25.15 27.277L23.7814 24.9057C24.9694 24.0889 25.9973 23.0609 26.8141 21.873L29.1845 23.2424C29.4627 23.4055 29.8069 23.407 30.0865 23.2464C30.3661 23.0858 30.5383 22.7877 30.5376 22.4653C30.5368 22.1428 30.3634 21.8455 30.0831 21.6861L27.7064 20.3131C28.3316 19.0147 28.7089 17.6111 28.8188 16.1743H31.5604C32.0566 16.1743 32.4589 15.772 32.4589 15.2757C32.4589 14.7794 32.0566 14.3771 31.5604 14.3771H28.8188C28.7089 12.9403 28.3316 11.5366 27.7064 10.2383L30.0831 8.8653C30.3634 8.70592 30.5368 8.40858 30.5376 8.08613C30.5383 7.76368 30.3661 7.46558 30.0865 7.30497C29.8069 7.14437 29.4627 7.1459 29.1845 7.30897L26.8141 8.6784C25.9973 7.49046 24.9694 6.46254 23.7814 5.64572L25.15 3.27439C25.313 2.99622 25.3146 2.652 25.154 2.37239C24.9934 2.09278 24.6952 1.92067 24.3728 1.92138C24.0504 1.92208 23.753 2.09551 23.5936 2.37582L22.2206 4.75254C20.9224 4.12692 19.5187 3.74963 18.0818 3.64011V0.898571C18.0818 0.402304 17.6795 0 17.1832 0C16.687 0 16.2847 0.402304 16.2847 0.898571V3.64011C14.8478 3.74963 13.444 4.12692 12.1458 4.75254L10.7728 2.37582C10.6135 2.09551 10.3161 1.92208 9.99366 1.92138C9.67121 1.92067 9.37311 2.09278 9.2125 2.37239C9.0519 2.652 9.05343 2.99622 9.2165 3.27439L10.585 5.64572C9.3971 6.46254 8.36917 7.49046 7.55235 8.6784L5.18192 7.30897C4.90375 7.1459 4.55953 7.14437 4.27992 7.30497C4.00032 7.46558 3.8282 7.76368 3.82891 8.08613C3.82962 8.40858 4.00304 8.70592 4.28335 8.8653L6.66007 10.2383C6.03487 11.5366 5.6576 12.9403 5.54764 14.3771H2.8061C2.30984 14.3771 1.90753 14.7794 1.90753 15.2757C1.90753 15.772 2.30984 16.1743 2.8061 16.1743ZM17.1832 5.39142C22.6422 5.39142 27.0675 9.81676 27.0675 15.2757C27.0675 20.7346 22.6422 25.16 17.1832 25.16C11.7243 25.16 7.29895 20.7346 7.29895 15.2757C7.30539 9.81943 11.727 5.39786 17.1832 5.39142Z" fill="#414141"/>
<path d="M13.5595 15.2755C15.1414 15.2755 16.4237 14.0786 16.4237 12.6023C16.4237 11.1259 15.1414 9.929 13.5595 9.929C11.9777 9.929 10.6953 11.1259 10.6953 12.6023C10.6953 14.0786 11.9777 15.2755 13.5595 15.2755ZM13.5595 11.7112C14.0868 11.7112 14.5142 12.1101 14.5142 12.6023C14.5142 13.0944 14.0868 13.4933 13.5595 13.4933C13.0322 13.4933 12.6048 13.0944 12.6048 12.6023C12.6048 12.1101 13.0322 11.7112 13.5595 11.7112Z" fill="#414141"/>
<path d="M20.8122 21.7691C22.8159 21.7691 24.4402 20.1448 24.4402 18.1411C24.4402 16.1374 22.8159 14.5131 20.8122 14.5131C18.8085 14.5131 17.1842 16.1374 17.1842 18.1411C17.1842 20.1448 18.8085 21.7691 20.8122 21.7691ZM20.8122 16.3271C21.814 16.3271 22.6262 17.1393 22.6262 18.1411C22.6262 19.1429 21.814 19.9551 20.8122 19.9551C19.8103 19.9551 18.9982 19.1429 18.9982 18.1411C18.9982 17.1393 19.8103 16.3271 20.8122 16.3271Z" fill="#414141"/>
<path d="M18.9052 10.693C19.4325 10.693 19.86 10.3511 19.86 9.92924C19.86 9.50741 19.4325 9.16545 18.9052 9.16545C18.3779 9.16545 17.9505 9.50741 17.9505 9.92924C17.9505 10.3511 18.3779 10.693 18.9052 10.693Z" fill="#414141"/>
<path d="M13.5575 19.8572C14.0848 19.8572 14.5122 19.4298 14.5122 18.9025C14.5122 18.3752 14.0848 17.9478 13.5575 17.9478C13.0302 17.9478 12.6028 18.3752 12.6028 18.9025C12.6028 19.4298 13.0302 19.8572 13.5575 19.8572Z" fill="#414141"/>
</svg>
